<?xml version="1.0" encoding="utf-8"?>
<!-- Generator: Adobe Illustrator 21.0.2, SVG Export Plug-In . SVG Version: 6.00 Build 0)  -->
<svg version="1.1" id="Capa_1" xmlns="http://www.w3.org/2000/svg" xmlns:xlink="http://www.w3.org/1999/xlink" x="0px" y="0px"
	 viewBox="0 0 97 44" style="enable-background:new 0 0 97 44;" xml:space="preserve">
<title>Website</title>
<g>
	<rect y="36.8" width="97" height="7.2"/>
	<path d="M31.2,31.8c-0.7,0-1.1-0.1-1.2-0.4c-0.2-0.8-0.3-1.5-0.3-2.3V14.2c-0.1-0.8,0-1.6,0.3-2.3c0.1-0.2,0.3-0.3,1.2-0.4l1.7-0.1
		V9.8h-0.3h-1c-0.7,0-1.5,0.1-2.2,0.1s-1.4,0-2.1-0.1l-1.1,0h-0.2l-8.8,18.1L8.3,10L8.2,9.8H8H6.9c-0.7,0-1.4,0.1-2.2,0.1
		s-1.5,0-2.2-0.1h0h-1H1.1v1.6l1.8,0.1c0.9,0.1,1.1,0.2,1.2,0.4l0,0c0.2,0.8,0.3,1.5,0.3,2.3v14.9c0.1,0.8,0,1.6-0.3,2.3
		c-0.1,0.2-0.3,0.3-1.2,0.4l-1.8,0.1v1.6h0.3l1.5,0H3c0.9,0,1.7-0.1,2.5-0.1s1.7,0,2.5,0.1l1.6,0h0.3v-1.6l-1.8-0.1
		c-0.9-0.1-1.1-0.2-1.2-0.4c-0.2-0.8-0.3-1.5-0.3-2.3V15.2l9.1,18.5l0.1,0.2h1.1l0.1-0.2c0.2-0.5,0.4-1,0.7-1.5
		c0.4-0.9,0.8-1.8,1.2-2.7l6.1-12.5c0.3-0.7,0.6-1.3,0.9-1.8v14c0.1,0.8,0,1.6-0.3,2.3c-0.1,0.2-0.3,0.3-1.2,0.4l-1.5,0.1v1.6h0.3
		c1.3-0.1,2.9-0.1,4.6-0.1c1.6,0,3.2,0,5,0.1h0.3v-1.6L31.2,31.8z M2.5,10L2.5,10z"/>
	<path d="M70.2,29.3c-0.8,0.5-1.8,0.8-2.8,0.8c-2.5,0-5-1.2-7.6-2.7c2.4-2.7,3.7-5.3,3.7-7.9c0-0.6,0-1.1-0.1-1.7
		c2.1,0.1,4.2,0.2,6.2,0.5l0.5,0.1v-0.5c0-1.1,0.2-2.2,0.6-3.3l0.2-0.6l-10.2,0.4c-1.2,0-2.4,0-3.5-0.1H57H56h-0.2l-2.3,2.9l0.8,0.1
		c1.5,0.1,2.9,0.2,4.3,0.5c0.2,0.1,0.8,1.5,0.8,3.6c0,1.2-0.7,2.8-2,4.5c-3.5-3.4-6.7-7.3-9.3-11.4c4.5-3.1,6.9-6.4,6.9-9.6
		c0-3-1.9-4.8-5.1-4.8c-1.3-0.1-2.7,0.3-3.7,1.2l-3.4,2.8c-0.9,0.8-1.3,2.3-1.3,4.6c0.1,2.1,0.5,4.1,1.4,6c-5,2.7-7.5,6.2-7.5,10.3
		c0,5.7,4.4,9.6,10.7,9.6l0,0c3.6-0.1,7-1.3,9.8-3.5c2.2,1.7,6.6,3.5,8.6,3.5h0.5c0.6,0.1,1.2-0.1,1.7-0.4l4.5-3.2l-0.5-2L70.2,29.3
		z M48.7,3.2v0.2c1.5,0,2.2,1.7,2.2,2.9c0,2-2.3,4.5-3.9,5.7c-0.6-1.6-0.9-3.2-1.1-4.9c0-1.2,0.1-2.4,0.8-3.1c0.5-0.5,1.2-0.7,2-0.6
		L48.7,3.2L48.7,3.2z M53.8,29.1c-1.6,1.1-3.4,1.7-5.4,1.8c-4.2-0.1-7.7-3.5-7.8-7.7c0-2.5,1-4.3,3.5-6.2
		C46.8,21.6,50.5,25.6,53.8,29.1L53.8,29.1z"/>
	<path d="M95.2,29.6L95,29.8c-2,1.3-4.4,1.9-6.8,1.9c-6.7,0-11-4.1-11-10.5c-0.1-2.5,0.8-5,2.4-7c1.8-1.9,4.5-3,7.1-2.9
		c1.3,0,2.5,0.2,3.8,0.5c1.4,0.5,2.8,1,2.8,1.8v2.7h1.7V16c0-1.7,0.3-3.3,0.6-5l0.1-0.3l-0.3-0.1c-2.6-0.9-5.3-1.3-8.1-1.4
		c-3.7-0.1-7.2,1.1-10.1,3.2c-2.8,2.2-4.4,5.6-4.3,9.2c0,7.5,5.6,12.4,14.2,12.4c2.7,0,5.3-0.7,7.7-1.8l0,0l1.1-1.9L95.2,29.6z"/>
</g>
</svg>
